<?xml version="1.0" encoding="UTF-8" standalone="no"?>
<!-- Created with Inkscape (http://www.inkscape.org/) -->

<svg
        width="172.87581mm"
        height="35.342907mm"
        viewBox="0 0 172.87581 35.342907"
        version="1.1"
        id="svg1"
        xml:space="preserve"
        xmlns:xlink="http://www.w3.org/1999/xlink"
        xmlns="http://www.w3.org/2000/svg"
        xmlns:svg="http://www.w3.org/2000/svg"><defs
     id="defs1"><linearGradient
       id="linearGradient114"><stop
         style="stop-color:#9c34c5;stop-opacity:1;"
         offset="0"
         id="stop112" /><stop
        style="stop-color:#7b43ed;stop-opacity:1;"
        offset="0.5"
        id="stop113" /></linearGradient><linearGradient
        id="swatch105"><stop
         style="stop-color:#000000;stop-opacity:1;"
         offset="0"
         id="stop106" /></linearGradient><linearGradient
        id="linearGradient99"><stop
         style="stop-color:#66beee;stop-opacity:1;"
         offset="0"
         id="stop97" /><stop
        style="stop-color:#7c3aed;stop-opacity:1;"
        offset="0.5"
        id="stop98" /><stop
        style="stop-color:#db2777;stop-opacity:1;"
        offset="1"
        id="stop99" /></linearGradient><linearGradient
        id="linearGradient26-1"><stop
         style="stop-color:#66beee;stop-opacity:1;"
         offset="0"
         id="stop26" /><stop
        style="stop-color:#7c3aed;stop-opacity:1;"
        offset="0.5"
        id="stop28" /></linearGradient><linearGradient
        xlink:href="#linearGradient99"
        id="linearGradient90"
        gradientUnits="userSpaceOnUse"
        x1="15.892232"
        y1="126.45042"
        x2="162.51035"
        y2="126.45042" /><linearGradient
        xlink:href="#linearGradient114"
        id="linearGradient131"
        x1="181.47591"
        y1="136.95059"
        x2="200.1053"
        y2="136.95059"
        gradientUnits="userSpaceOnUse"
        spreadMethod="reflect" /><linearGradient
        xlink:href="#linearGradient26-1"
        id="linearGradient122"
        x1="72.466492"
        y1="218.3259"
        x2="134.73186"
        y2="218.3259"
        gradientUnits="userSpaceOnUse" /><linearGradient
        xlink:href="#linearGradient99"
        id="linearGradient1"
        gradientUnits="userSpaceOnUse"
        x1="15.892232"
        y1="126.45042"
        x2="162.51035"
        y2="126.45042" /><linearGradient
        xlink:href="#linearGradient99"
        id="linearGradient2"
        gradientUnits="userSpaceOnUse"
        x1="15.892232"
        y1="126.45042"
        x2="162.51035"
        y2="126.45042" /><linearGradient
        xlink:href="#linearGradient99"
        id="linearGradient4"
        gradientUnits="userSpaceOnUse"
        x1="15.892232"
        y1="126.45042"
        x2="162.51035"
        y2="126.45042" /><linearGradient
        xlink:href="#linearGradient99"
        id="linearGradient5"
        gradientUnits="userSpaceOnUse"
        x1="15.892232"
        y1="126.45042"
        x2="162.51035"
        y2="126.45042" /><linearGradient
        xlink:href="#linearGradient99"
        id="linearGradient7"
        gradientUnits="userSpaceOnUse"
        x1="15.892232"
        y1="126.45042"
        x2="162.51035"
        y2="126.45042" /><linearGradient
        xlink:href="#linearGradient99"
        id="linearGradient8"
        gradientUnits="userSpaceOnUse"
        x1="15.892232"
        y1="126.45042"
        x2="162.51035"
        y2="126.45042" /><linearGradient
        xlink:href="#linearGradient99"
        id="linearGradient10"
        gradientUnits="userSpaceOnUse"
        x1="15.892232"
        y1="126.45042"
        x2="162.51035"
        y2="126.45042" /><linearGradient
        xlink:href="#linearGradient99"
        id="linearGradient11"
        gradientUnits="userSpaceOnUse"
        x1="15.892232"
        y1="126.45042"
        x2="162.51035"
        y2="126.45042" /><linearGradient
        xlink:href="#linearGradient99"
        id="linearGradient12"
        gradientUnits="userSpaceOnUse"
        x1="15.892232"
        y1="126.45042"
        x2="162.51035"
        y2="126.45042" /><linearGradient
        xlink:href="#linearGradient99"
        id="linearGradient13"
        gradientUnits="userSpaceOnUse"
        x1="15.892232"
        y1="126.45042"
        x2="162.51035"
        y2="126.45042" /><linearGradient
        xlink:href="#linearGradient99"
        id="linearGradient14"
        gradientUnits="userSpaceOnUse"
        x1="15.892232"
        y1="126.45042"
        x2="162.51035"
        y2="126.45042" /><linearGradient
        xlink:href="#linearGradient99"
        id="linearGradient16"
        gradientUnits="userSpaceOnUse"
        x1="15.892232"
        y1="126.45042"
        x2="162.51035"
        y2="126.45042" /><linearGradient
        xlink:href="#linearGradient99"
        id="linearGradient17"
        gradientUnits="userSpaceOnUse"
        x1="15.892232"
        y1="126.45042"
        x2="162.51035"
        y2="126.45042" /><linearGradient
        xlink:href="#linearGradient99"
        id="linearGradient19"
        gradientUnits="userSpaceOnUse"
        x1="15.892232"
        y1="126.45042"
        x2="162.51035"
        y2="126.45042" /><linearGradient
        xlink:href="#linearGradient99"
        id="linearGradient20"
        gradientUnits="userSpaceOnUse"
        x1="15.892232"
        y1="126.45042"
        x2="162.51035"
        y2="126.45042" /><linearGradient
        xlink:href="#linearGradient99"
        id="linearGradient22"
        gradientUnits="userSpaceOnUse"
        x1="15.892232"
        y1="126.45042"
        x2="162.51035"
        y2="126.45042" /><linearGradient
        xlink:href="#linearGradient99"
        id="linearGradient23"
        gradientUnits="userSpaceOnUse"
        x1="15.892232"
        y1="126.45042"
        x2="162.51035"
        y2="126.45042" /><linearGradient
        xlink:href="#linearGradient99"
        id="linearGradient24"
        gradientUnits="userSpaceOnUse"
        x1="15.892232"
        y1="126.45042"
        x2="162.51035"
        y2="126.45042" /><linearGradient
        xlink:href="#linearGradient99"
        id="linearGradient27"
        gradientUnits="userSpaceOnUse"
        x1="15.892232"
        y1="126.45042"
        x2="162.51035"
        y2="126.45042" /><linearGradient
        xlink:href="#linearGradient99"
        id="linearGradient28"
        gradientUnits="userSpaceOnUse"
        x1="15.892232"
        y1="126.45042"
        x2="162.51035"
        y2="126.45042" /><linearGradient
        xlink:href="#linearGradient99"
        id="linearGradient29"
        gradientUnits="userSpaceOnUse"
        x1="15.892232"
        y1="126.45042"
        x2="162.51035"
        y2="126.45042" /><linearGradient
        xlink:href="#linearGradient99"
        id="linearGradient30"
        gradientUnits="userSpaceOnUse"
        x1="15.892232"
        y1="126.45042"
        x2="162.51035"
        y2="126.45042" /><linearGradient
        xlink:href="#linearGradient99"
        id="linearGradient31"
        gradientUnits="userSpaceOnUse"
        x1="15.892232"
        y1="126.45042"
        x2="162.51035"
        y2="126.45042" /><linearGradient
        xlink:href="#linearGradient114"
        id="linearGradient32"
        gradientUnits="userSpaceOnUse"
        x1="181.47591"
        y1="136.95059"
        x2="200.1053"
        y2="136.95059"
        spreadMethod="reflect" /><linearGradient
        xlink:href="#linearGradient114"
        id="linearGradient33"
        gradientUnits="userSpaceOnUse"
        x1="181.47591"
        y1="136.95059"
        x2="200.1053"
        y2="136.95059"
        spreadMethod="reflect" /><linearGradient
        xlink:href="#linearGradient114"
        id="linearGradient34"
        gradientUnits="userSpaceOnUse"
        x1="181.47591"
        y1="136.95059"
        x2="200.1053"
        y2="136.95059"
        spreadMethod="reflect" /><linearGradient
        xlink:href="#linearGradient26-1"
        id="linearGradient35"
        gradientUnits="userSpaceOnUse"
        x1="72.466492"
        y1="218.3259"
        x2="134.73186"
        y2="218.3259" /><linearGradient
        xlink:href="#linearGradient26-1"
        id="linearGradient36"
        gradientUnits="userSpaceOnUse"
        x1="72.466492"
        y1="218.3259"
        x2="134.73186"
        y2="218.3259" /></defs><g
        id="layer1"
        transform="translate(-20.946006,-24.763519)"><g
       id="g36"><g
         id="g51"
         style="mix-blend-mode:normal;fill:url(#linearGradient131);fill-opacity:1;stroke:none"
         transform="matrix(1.1680927,0,0,1.3796915,-39.91972,-141.0365)"><g
           id="g53"
           style="fill:url(#linearGradient34);fill-opacity:1;stroke:none"
           transform="translate(91.635836,-75.306599)"><path
             id="text34"
             style="font-style:normal;font-variant:normal;font-weight:normal;font-stretch:normal;font-size:32.4884px;font-family:Arial;-inkscape-font-specification:Arial;text-align:start;letter-spacing:27.0736px;writing-mode:lr-tb;direction:ltr;text-anchor:start;fill:url(#linearGradient32);fill-opacity:1;stroke:none;stroke-width:12.9412;stroke-linecap:square;stroke-linejoin:miter;stroke-dasharray:none"
             d="m 89.840073,206.41282 0.984849,1.36973 10.993248,-0.13582 c -3.082139,2.21018 -3.130024,2.40121 -6.864868,4.76567 2.616753,-0.0325 4.567156,0.0283 7.155128,-0.0544 l 6.36103,-4.74523 v -2.49043 z" /><path
        id="text34-5"
        style="font-style:normal;font-variant:normal;font-weight:normal;font-stretch:normal;font-size:32.4884px;font-family:Arial;-inkscape-font-specification:Arial;text-align:start;letter-spacing:27.0736px;writing-mode:lr-tb;direction:ltr;text-anchor:start;fill:url(#linearGradient33);fill-opacity:1;stroke:none;stroke-width:12.9412;stroke-linecap:square;stroke-linejoin:miter;stroke-dasharray:none"
        d="m 107.83937,219.3581 -1.90182,-1.30181 -8.548114,-1.18864 c 3.082144,-2.21018 3.130034,-2.40121 6.864874,-4.76567 -2.61675,0.0325 -4.567154,-0.0283 -7.155134,0.0544 l -6.36103,4.74523 v 2.49043 z" /></g></g><g
        id="g69"
        style="mix-blend-mode:normal;fill:url(#linearGradient122);fill-opacity:1;stroke:none"
        transform="matrix(0.42437196,0,0,0.44866537,114.96187,-49.176183)"><g
           id="g68"
           style="fill:url(#linearGradient36);fill-opacity:1;stroke:none"><path
             id="text33"
             style="font-style:normal;font-variant:normal;font-weight:normal;font-stretch:normal;font-size:46.9766px;font-family:Bahnschrift;-inkscape-font-specification:'Bahnschrift, @wght=700';font-variant-ligatures:normal;font-variant-caps:normal;font-variant-numeric:normal;font-variant-east-asian:normal;font-variation-settings:'wght' 700;text-align:start;letter-spacing:26.4886px;writing-mode:lr-tb;direction:ltr;text-anchor:start;fill:url(#linearGradient35);fill-opacity:1;stroke:none;stroke-width:5.5725;stroke-linecap:square;stroke-linejoin:miter;stroke-dasharray:none;stroke-opacity:1"
             d="m 129.4908,196.43607 c -0.17619,-0.2459 -39.195799,1.94962 -52.468628,2.78898 l 4.119645,5.27565 c 1.092148,-0.0824 30.619803,0.7892 31.712273,0.71003 0.69856,-0.0428 8.17943,0.30406 7.87267,1.25249 l -5.97702,18.47923 c -0.31855,0.98487 -6.43253,3.94987 -7.61626,4.5333 -1.18374,0.5646 -14.585321,-0.13558 -14.640595,0.64373 l 0.765964,-10.79939 c 0,0 -13.835553,9.32295 -19.541387,12.91123 -0.837232,5.40662 -1.250972,7.66391 -1.250972,7.66391 l 28.94284,0.3396 c -48.259901,-5.21259 1.1133,-0.17106 6.13063,-1.27708 3.24429,-0.734 5.72227,-1.78769 7.4321,-3.16156 1.70983,-1.37388 10.41208,-5.44917 11.05489,-7.27796 l 8.7049,-24.76644 z m -55.613898,34.26786 c 1.421192,-0.96714 20.344975,-12.97555 19.472128,-12.99506 -2.51394,-0.0562 -6.125761,0.29478 -4.119364,0.2283 9.974695,-7.06214 2.587894,-2.04744 16.406124,-11.40675 -4.61029,-0.31898 -14.603756,-0.67603 -20.675684,-1.1277 -2.688317,7.99663 -7.848842,16.51105 -11.083204,25.30121 z" /></g></g><g
        id="g90"
        style="stroke:url(#linearGradient90)"
        transform="matrix(0,0.79272188,-0.80925257,0,242.20957,-8.8902217)"><g
           id="g57"
           style="stroke:url(#linearGradient31)"
           transform="rotate(-90,114.28828,173.66273)"><g
             id="g92"
             style="stroke:url(#linearGradient8)"
             transform="matrix(1.1465726,0,0,1.1467476,-8.4204905,-21.485601)"><path
               style="fill:#7b3eed;fill-opacity:1;stroke:url(#linearGradient1);stroke-width:0.222;stroke-linecap:round;stroke-linejoin:round;stroke-dasharray:none;stroke-opacity:1"
               d="m 85.401737,108.49132 c -1.267358,1.3613 -0.552021,5.55242 -0.552021,5.55242 l 5.180866,-6.34959 c 0,0 -3.562004,-0.34876 -4.628845,0.79717 z"
               id="path39-6" /><path
        style="fill:#7b42ed;fill-opacity:1;stroke:url(#linearGradient2);stroke-width:0.222;stroke-linecap:round;stroke-linejoin:round;stroke-dasharray:none;stroke-opacity:1"
        d="m 93.754405,115.09402 c -0.923426,1.68839 -5.354738,1.47009 -5.354738,1.47009 l 5.949301,-5.91734 c 0,0 0.340832,2.73698 -0.594563,4.44725 z"
        id="path39-6-4" /><path
        style="fill:none;fill-opacity:1;stroke:url(#linearGradient4);stroke-width:1.672;stroke-linecap:round;stroke-linejoin:round;stroke-dasharray:none;stroke-opacity:1"
        d="m 87.00638,110.43901 1.630094,5.26386"
        id="path85" /><path
        style="fill:none;fill-opacity:1;stroke:url(#linearGradient5);stroke-width:1.672;stroke-linecap:round;stroke-linejoin:round;stroke-dasharray:none;stroke-opacity:1"
        d="m 91.794787,113.90296 -6.350584,-0.27168"
        id="path86" /><path
        style="fill:none;fill-opacity:1;stroke:url(#linearGradient7);stroke-width:1.672;stroke-linecap:round;stroke-linejoin:round;stroke-dasharray:none;stroke-opacity:1"
        d="m 87.21014,111.93326 -3.769596,3.7696 2.580986,2.44515 4.07524,-3.97336 -5.773257,1.56217 1.867818,1.69802 z"
        id="path87" /></g><g
        id="g56"
        style="stroke:url(#linearGradient30)"><path
               style="fill:none;stroke:url(#linearGradient10);stroke-width:1.98043;stroke-linecap:round;stroke-linejoin:round;stroke-dasharray:none;stroke-opacity:1"
               d="m 29.796045,122.22224 -4.646712,-13.51598 -9.625336,1e-5 10.842331,33.84153 c 0,0 3.044302,-14.23829 11.17424,-25.27797 0.830074,-1.12716 5.31053,9.1826 5.31053,9.1826 l 6.084982,-17.64299 9.625336,0.10317 -11.174241,34.56377 -10.842331,-14.75408"
               id="path4" /><path
        style="fill:none;stroke:url(#linearGradient11);stroke-width:1.98043;stroke-linecap:round;stroke-linejoin:round;stroke-dasharray:none;stroke-opacity:1"
        d="m 106.74019,115.50245 c 0,0 6.76462,-0.30083 11.55197,0.20635 4.13709,0.43829 6.61667,3.55221 0.82027,6.26436 -5.34152,2.49932 -17.52631,1.27048 -17.52631,1.27048 l -0.11065,21.15096 7.74452,0.20635 -0.11062,-16.19854 9.18279,15.88901 h 9.95724 c 0,0 -18.3651,-18.47332 -5.86371,-17.02394 5.53593,0.64183 8.62106,-5.24144 5.75307,-13.10327 -2.6471,-7.25631 -26.55265,-4.64289 -26.55265,-4.64289 l 10e-6,7.73815"
        id="path10" /><path
        style="fill:none;stroke:url(#linearGradient12);stroke-width:1.53218;stroke-linecap:round;stroke-linejoin:round;stroke-dasharray:none;stroke-opacity:1"
        d="m 141.32511,115.5019 -0.0374,-6.30604 -8.24004,0.036 0.15467,15.92717 21.96361,-15.61488 10.3631,-0.15615 -32.48138,22.32929 0.15467,12.64805 8.35235,-0.15615 -0.15467,-10.77428 c 0,0 11.28378,-14.0099 12.23803,-8.73733 1.58986,8.78454 12.04567,19.1993 12.04567,19.1993 l -8.50702,0.15616 -7.579,-12.49191"
        id="path15" /><path
        style="fill:none;stroke:url(#linearGradient13);stroke-width:2.51123;stroke-linecap:round;stroke-linejoin:round;stroke-dasharray:none;stroke-opacity:1"
        id="path38"
        d="m 76.228164,138.23797 a 15.616319,13.982998 0 0 1 -17.370929,-11.93983 15.616319,13.982998 0 0 1 13.041249,-15.75217 15.616319,13.982998 0 0 1 17.808418,11.4114" /><path
        style="fill:#765bed;fill-opacity:1;stroke:url(#linearGradient14);stroke-width:0.254559;stroke-linecap:round;stroke-linejoin:round;stroke-dasharray:none;stroke-opacity:1"
        d="m 73.855485,137.95087 -3.543357,8.334 L 80.319192,135.77 Z"
        id="path39" /><path
        style="fill:none;fill-opacity:1;stroke:url(#linearGradient16);stroke-width:1.97455;stroke-linecap:round;stroke-linejoin:round;stroke-dasharray:none;stroke-opacity:1"
        d="m 71.324515,123.15216 3.037162,2.88186 7.39822,-6.3868"
        id="path76" /><path
        style="fill:none;fill-opacity:1;stroke:url(#linearGradient17);stroke-width:1.97455;stroke-linecap:round;stroke-linejoin:round;stroke-dasharray:none;stroke-opacity:1"
        d="m 74.205926,114.19506 v 1.40198"
        id="path78" /><path
        style="fill:none;fill-opacity:1;stroke:url(#linearGradient19);stroke-width:1.97455;stroke-linecap:round;stroke-linejoin:round;stroke-dasharray:none;stroke-opacity:1"
        d="m 74.296582,133.60363 v 1.40198"
        id="path78-5" /><path
        style="fill:none;fill-opacity:1;stroke:url(#linearGradient20);stroke-width:1.97455;stroke-linecap:round;stroke-linejoin:round;stroke-dasharray:none;stroke-opacity:1"
        d="M 62.75907,124.30757 H 61.357305"
        id="path78-5-4" /><path
        style="fill:none;fill-opacity:1;stroke:url(#linearGradient22);stroke-width:1.97455;stroke-linecap:round;stroke-linejoin:round;stroke-dasharray:none;stroke-opacity:1"
        d="m 68.170536,115.5581 0.934513,1.40198"
        id="path81" /><path
        style="fill:none;fill-opacity:1;stroke:url(#linearGradient23);stroke-width:1.97455;stroke-linecap:round;stroke-linejoin:round;stroke-dasharray:none;stroke-opacity:1"
        d="m 62.567884,119.16088 1.51858,0.81782"
        id="path82" /><path
        style="fill:none;fill-opacity:1;stroke:url(#linearGradient24);stroke-width:1.97455;stroke-linecap:round;stroke-linejoin:round;stroke-dasharray:none;stroke-opacity:1"
        d="m 62.645758,129.55891 1.557523,-0.70099"
        id="path83" /><path
        style="fill:none;fill-opacity:1;stroke:url(#linearGradient27);stroke-width:1.97455;stroke-linecap:round;stroke-linejoin:round;stroke-dasharray:none;stroke-opacity:1"
        d="m 68.287353,133.23864 0.545129,-0.70099"
        id="path84" /><path
        style="fill:#7a44ed;fill-opacity:1;stroke:url(#linearGradient28);stroke-width:0.254559;stroke-linecap:round;stroke-linejoin:round;stroke-dasharray:none;stroke-opacity:1"
        d="m 90.397977,120.04559 1.012387,4.20593 -2.803535,-1.55777 z"
        id="path39-1" /><path
        style="fill:#7b43ed;fill-opacity:1;stroke:url(#linearGradient29);stroke-width:0.999888;stroke-linecap:round;stroke-linejoin:round;stroke-dasharray:none;stroke-opacity:1"
        d="m 87.009987,124.90385 2.422932,0.16523 -0.220265,2.25808 4.460398,1.1015 -0.936133,2.91897 c 0,0 -6.402994,-2.59643 -7.268796,-0.33044 -1.243374,3.25417 7.742899,3.14314 8.094795,6.609 0.402957,3.96878 -5.286397,5.7278 -5.286397,5.7278 l -0.440533,2.203 c -0.878185,0.0675 -1.756745,0 -2.643198,0 -0.143176,0 -0.44054,-2.31315 -0.44054,-2.31315 l -4.955991,-1.65225 0.991199,-3.35958 c 0,0 6.857418,3.49157 7.874529,1.04643 1.20154,-2.88852 -5.835346,-3.03871 -7.433995,-5.7278 -2.430487,-4.08833 5.06613,-6.44378 5.06613,-6.44378 z"
        id="path88" /></g></g></g></g></g></svg>